<?xml version="1.0" encoding="utf-8"?>
<!-- Generator: Adobe Illustrator 20.1.0, SVG Export Plug-In . SVG Version: 6.00 Build 0)  -->
<svg version="1.1" id="Layer_1" xmlns="http://www.w3.org/2000/svg" xmlns:xlink="http://www.w3.org/1999/xlink" x="0px" y="0px"
	 viewBox="0 0 250 81.4" style="enable-background:new 0 0 250 81.4;" xml:space="preserve">
<style type="text/css">
	.st0{fill:#231F20;}
</style>
<g>
	<path class="st0" d="M60.2,48.2c-0.1,6.6,0.8,14,9.5,14c7.8,0,13.5-5.2,14.8-12.8h1.5c-1.5,8.5-7.8,14.3-16.3,14.3
		c-10.8,0-18.4-8.3-18.4-20.5c0-9,7.2-20.5,17.3-20.5c10.9,0,16.6,12.2,16.6,16.1c0,0.6-0.3,0.8-0.8,0.8H60.2V48.2z M76.3,35.5
		c0-5.9-1.6-11.4-7.7-11.4c-6.5,0-8.4,5.5-8.4,11.4v2.6h15.4c0.5,0,0.6-0.3,0.6-0.6L76.3,35.5L76.3,35.5z"/>
	<path class="st0" d="M94.6,26.1h-7.3v-1.5h7.3c4.4,0,6.1,0,7.8-2V32h0.2c2.4-4.4,7-9.4,13.8-9.4c9.9,0,12.7,5,12.7,10.5v28h7.3v1.5
		h-22.4v-1.5h7.3V30.8c0-5.1-2.5-6.8-5.5-6.8c-7.8,0-11.8,7.8-13.4,10.9v26.1h7v1.5H87.3v-1.5h7.3V26.1z"/>
	<path class="st0" d="M145,48.2c-0.1,6.6,0.8,14,9.5,14c7.8,0,13.5-5.2,14.8-12.8h1.5c-1.5,8.5-7.8,14.3-16.3,14.3
		c-10.8,0-18.4-8.3-18.4-20.5c0-9,7.2-20.5,17.3-20.5c10.9,0,16.6,12.2,16.6,16.1c0,0.6-0.3,0.8-0.8,0.8H145V48.2z M161.1,35.5
		c0-5.9-1.6-11.4-7.7-11.4c-6.5,0-8.4,5.5-8.4,11.4v2.6h15.5c0.5,0,0.6-0.3,0.6-0.6L161.1,35.5L161.1,35.5z"/>
	<path class="st0" d="M229.1,26.1H221v-1.5c9.6,0.2,13.1-3.9,14.7-13h1.1v13h12.8v1.5h-12.8v31.1c0,3.8,1.6,5,4.5,5
		c4.6,0,6.7-4.3,7.2-5.8l1.4,0.3c-0.6,2.2-3.3,7-10.2,7c-6.5,0-10.7-2.1-10.7-8.2V26.1z"/>
	<path class="st0" d="M208.1,26.1H205v-1.5h3.1c3,0,5.9-0.2,7.8-2v38.5h7.4v1.5h-22.6v-1.5h7.4L208.1,26.1L208.1,26.1z"/>
	<path class="st0" d="M192.4,26.9c-5.8,16.7-10.8,33.9-15,41.3c-6.4,11.2-10.4,13.4-16,13.2c-3-0.1-5.2-2.7-5.2-5
		c0.1-2.5,2.1-4.1,4.1-4c2.4,0.1,3.9,1.5,3.9,3.5c-0.1,2.4-1.8,2.3-1.8,3.3c0,0.6,0.5,0.8,1.3,0.9c1.5,0.1,5-1.1,7.7-7.9
		c3.4-8.9,7.9-29,13-44.3l0.5-1.3c2.9-9.4,7.9-16.6,12.8-21.1c4.5-4,8.3-5.8,12.2-5.6c3.2,0.1,6.1,2.4,6,5.5
		c-0.1,2.2-1.4,4.3-4.4,4.3c-2.9,0-4.4-2.7-4.3-4.5c0.1-2.2,1.5-2.6,1.5-3.4c0-0.7-0.7-0.7-1.2-0.7c-5.3-0.2-10.7,12.4-12,16.4
		L192.4,26.9z"/>
	<polygon class="st0" points="176.4,26.1 176.4,24.6 201,24.6 201,26.1 	"/>
	<path class="st0" d="M6.4,4.1H0V2.6h6.4c3,0,6-0.2,7.8-2.3v31.6h0.2c1.7-4.4,6.1-9.5,12.8-9.5c11.2,0,18.5,11.5,18.5,20.7
		c0,10.9-7.5,20.7-19.2,20.7c-6.6,0-11-4.9-12.2-7.9h-0.2v6.8H0v-1.5h6.4V4.1z M14.2,49.1c0,8.8,6.9,13.1,12.4,13.1
		c9.1,0,10.2-5.3,10.2-19.2c0-12.7-1.4-19.2-9.6-19.2c-7.7,0-13,7.6-13,14.4L14.2,49.1z"/>
	<path class="st0" d="M11,73.5c-0.9-0.5-1.3-0.6-1.9-0.6c-1,0-1.8,0.7-1.8,1.6c0,2.2,4,1.2,4,4.1c0,1.3-1.1,2.3-2.4,2.3
		c-0.7,0-1.4-0.2-2.2-0.7v-0.8c0.9,0.7,1.5,0.9,2.1,0.9c1,0,1.8-0.7,1.8-1.7c0-2.4-4-1.3-4-4.1c0-1.2,1.1-2.2,2.4-2.2
		c0.7,0,1.3,0.2,1.9,0.5L11,73.5z"/>
	<path class="st0" d="M11,73.5c-0.9-0.5-1.3-0.6-1.9-0.6c-1,0-1.8,0.7-1.8,1.6c0,2.2,4,1.2,4,4.1c0,1.3-1.1,2.3-2.4,2.3
		c-0.7,0-1.4-0.2-2.2-0.7v-0.8c0.9,0.7,1.5,0.9,2.1,0.9c1,0,1.8-0.7,1.8-1.7c0-2.4-4-1.3-4-4.1c0-1.2,1.1-2.2,2.4-2.2
		c0.7,0,1.3,0.2,1.9,0.5L11,73.5z"/>
	<path class="st0" d="M24.1,80.8h-0.7l-1.3-2.9H18l-1.3,2.9H16l3.9-8.5h0.4L24.1,80.8z M20,73.4l-1.8,4h3.6L20,73.4z"/>
	<path class="st0" d="M24.1,80.8h-0.7l-1.3-2.9H18l-1.3,2.9H16l3.9-8.5h0.4L24.1,80.8z M20,73.4l-1.8,4h3.6L20,73.4z"/>
	<polygon class="st0" points="36.8,80.8 36.2,80.8 29.9,73.4 29.9,80.8 29.2,80.8 29.2,72.4 29.8,72.4 36.1,79.7 36.1,72.4 
		36.8,72.4 	"/>
	<polygon class="st0" points="36.8,80.8 36.2,80.8 29.9,73.4 29.9,80.8 29.2,80.8 29.2,72.4 29.8,72.4 36.1,79.7 36.1,72.4 
		36.8,72.4 	"/>
	<polygon class="st0" points="54.6,72.9 51,72.9 51,76.1 54.3,76.1 54.3,76.7 51,76.7 51,80.8 50.3,80.8 50.3,72.4 54.6,72.4 	"/>
	<polygon class="st0" points="54.6,72.9 51,72.9 51,76.1 54.3,76.1 54.3,76.7 51,76.7 51,80.8 50.3,80.8 50.3,72.4 54.6,72.4 	"/>
	<path class="st0" d="M62,72.4c2.1,0,2.8,1.1,2.8,2.2c0,1-0.5,1.7-1.6,2c0.4,0.2,0.7,0.7,1.1,1.3l1.9,2.9h-0.8l-1.5-2.3
		c-1-1.6-1.3-1.7-2.3-1.7h-1.1v4h-0.7v-8.4L62,72.4L62,72.4z M60.4,76.2h1.4c1.5,0,2.2-0.6,2.2-1.7c0-1-0.7-1.6-2.2-1.6h-1.4
		L60.4,76.2z"/>
	<path class="st0" d="M62,72.4c2.1,0,2.8,1.1,2.8,2.2c0,1-0.5,1.7-1.6,2c0.4,0.2,0.7,0.7,1.1,1.3l1.9,2.9h-0.8l-1.5-2.3
		c-1-1.6-1.3-1.7-2.3-1.7h-1.1v4h-0.7v-8.4L62,72.4L62,72.4z M60.4,76.2h1.4c1.5,0,2.2-0.6,2.2-1.7c0-1-0.7-1.6-2.2-1.6h-1.4
		L60.4,76.2z"/>
	<path class="st0" d="M78.1,80.8h-0.7l-1.3-2.9H72l-1.3,2.9H70l3.9-8.5h0.4L78.1,80.8z M74.1,73.4l-1.8,4h3.6L74.1,73.4z"/>
	<path class="st0" d="M78.1,80.8h-0.7l-1.3-2.9H72l-1.3,2.9H70l3.9-8.5h0.4L78.1,80.8z M74.1,73.4l-1.8,4h3.6L74.1,73.4z"/>
	<polygon class="st0" points="90.8,80.8 90.3,80.8 83.9,73.4 83.9,80.8 83.2,80.8 83.2,72.4 83.8,72.4 90.2,79.7 90.2,72.4 
		90.8,72.4 	"/>
	<polygon class="st0" points="90.8,80.8 90.3,80.8 83.9,73.4 83.9,80.8 83.2,80.8 83.2,72.4 83.8,72.4 90.2,79.7 90.2,72.4 
		90.8,72.4 	"/>
	<path class="st0" d="M103.9,73.7c-1-0.6-2-0.8-3-0.8c-2.1,0-3.7,1.6-3.7,3.7c0,2.2,1.6,3.7,3.8,3.7c0.9,0,1.9-0.3,3-0.9v0.7
		c-1,0.5-2,0.8-3,0.8c-2.6,0-4.5-1.8-4.5-4.3c0-2.6,2.1-4.3,4.4-4.3c0.9,0,1.9,0.2,3,0.7L103.9,73.7L103.9,73.7z"/>
	<path class="st0" d="M103.9,73.7c-1-0.6-2-0.8-3-0.8c-2.1,0-3.7,1.6-3.7,3.7c0,2.2,1.6,3.7,3.8,3.7c0.9,0,1.9-0.3,3-0.9v0.7
		c-1,0.5-2,0.8-3,0.8c-2.6,0-4.5-1.8-4.5-4.3c0-2.6,2.1-4.3,4.4-4.3c0.9,0,1.9,0.2,3,0.7L103.9,73.7L103.9,73.7z"/>
	<rect x="109.3" y="72.4" class="st0" width="0.7" height="8.4"/>
	<rect x="109.3" y="72.4" class="st0" width="0.7" height="8.4"/>
	<path class="st0" d="M119.9,73.5c-0.9-0.5-1.3-0.6-1.9-0.6c-1,0-1.8,0.7-1.8,1.6c0,2.2,4,1.2,4,4.1c0,1.3-1.1,2.3-2.4,2.3
		c-0.7,0-1.4-0.2-2.2-0.7v-0.8c0.9,0.7,1.5,0.9,2.1,0.9c1,0,1.8-0.7,1.8-1.7c0-2.4-4-1.3-4-4.1c0-1.2,1.1-2.2,2.4-2.2
		c0.7,0,1.3,0.2,2,0.5V73.5z"/>
	<path class="st0" d="M119.9,73.5c-0.9-0.5-1.3-0.6-1.9-0.6c-1,0-1.8,0.7-1.8,1.6c0,2.2,4,1.2,4,4.1c0,1.3-1.1,2.3-2.4,2.3
		c-0.7,0-1.4-0.2-2.2-0.7v-0.8c0.9,0.7,1.5,0.9,2.1,0.9c1,0,1.8-0.7,1.8-1.7c0-2.4-4-1.3-4-4.1c0-1.2,1.1-2.2,2.4-2.2
		c0.7,0,1.3,0.2,2,0.5V73.5z"/>
	<path class="st0" d="M132.8,73.7c-1.1-0.6-2-0.8-3-0.8c-2.1,0-3.7,1.6-3.7,3.7c0,2.2,1.6,3.7,3.8,3.7c1,0,1.9-0.3,3-0.9v0.7
		c-1,0.5-2,0.8-3,0.8c-2.6,0-4.5-1.8-4.5-4.3c0-2.6,2.1-4.3,4.4-4.3c0.9,0,1.9,0.2,3,0.7L132.8,73.7L132.8,73.7z"/>
	<path class="st0" d="M132.8,73.7c-1.1-0.6-2-0.8-3-0.8c-2.1,0-3.7,1.6-3.7,3.7c0,2.2,1.6,3.7,3.8,3.7c1,0,1.9-0.3,3-0.9v0.7
		c-1,0.5-2,0.8-3,0.8c-2.6,0-4.5-1.8-4.5-4.3c0-2.6,2.1-4.3,4.4-4.3c0.9,0,1.9,0.2,3,0.7L132.8,73.7L132.8,73.7z"/>
	<path class="st0" d="M142.3,80.9c-2.5,0-4.4-1.9-4.4-4.3c0-2.4,1.9-4.3,4.4-4.3c2.5,0,4.5,1.9,4.5,4.3
		C146.8,79,144.8,80.9,142.3,80.9 M142.3,72.9c-2.1,0-3.8,1.6-3.8,3.7c0,2.1,1.7,3.7,3.8,3.7c2.1,0,3.7-1.6,3.7-3.7
		C146.1,74.5,144.4,72.9,142.3,72.9"/>
	<path class="st0" d="M142.3,80.9c-2.5,0-4.4-1.9-4.4-4.3c0-2.4,1.9-4.3,4.4-4.3c2.5,0,4.5,1.9,4.5,4.3
		C146.8,79,144.8,80.9,142.3,80.9z M142.3,72.9c-2.1,0-3.8,1.6-3.8,3.7c0,2.1,1.7,3.7,3.8,3.7c2.1,0,3.7-1.6,3.7-3.7
		C146.1,74.5,144.4,72.9,142.3,72.9z"/>
</g>
</svg>
